<?xml version="1.0" encoding="utf-8"?>
<!-- Generator: Adobe Illustrator 19.0.0, SVG Export Plug-In . SVG Version: 6.00 Build 0)  -->
<svg version="1.1" id="Layer_1" xmlns="http://www.w3.org/2000/svg" xmlns:xlink="http://www.w3.org/1999/xlink" x="0px" y="0px"
	 viewBox="0 0 326.9 189.7" enable-background="new 0 0 326.9 189.7" xml:space="preserve">
<circle id="XMLID_1_" fill="#FFFFFF" cx="53.6" cy="55.1" r="29.4"/>
<g id="XMLID_8_">
	<circle id="XMLID_9_" fill="#FFFFFF" cx="53.6" cy="55.1" r="29.4"/>
	<linearGradient id="XMLID_82_" gradientUnits="userSpaceOnUse" x1="35.229" y1="26.1794" x2="35.229" y2="85.8174">
		<stop  offset="0" style="stop-color:#2D2D2D"/>
		<stop  offset="1" style="stop-color:#262626"/>
	</linearGradient>
	<path id="XMLID_19_" fill="url(#XMLID_82_)" d="M39.9,81.2l4.9-16.8l-19.1,0C28.1,71.7,33.2,77.7,39.9,81.2z"/>
	<linearGradient id="XMLID_83_" gradientUnits="userSpaceOnUse" x1="73.2947" y1="26.1794" x2="73.2947" y2="85.8174">
		<stop  offset="0" style="stop-color:#2D2D2D"/>
		<stop  offset="1" style="stop-color:#262626"/>
	</linearGradient>
	<path id="XMLID_39_" fill="url(#XMLID_83_)" d="M74.8,34.8L66,43.6h14.6C79.2,40.3,77.2,37.3,74.8,34.8z"/>
	<linearGradient id="XMLID_84_" gradientUnits="userSpaceOnUse" x1="40.431" y1="26.1794" x2="40.431" y2="85.8174">
		<stop  offset="0" style="stop-color:#2D2D2D"/>
		<stop  offset="1" style="stop-color:#262626"/>
	</linearGradient>
	<path id="XMLID_40_" fill="url(#XMLID_84_)" d="M53.6,25.8L53.6,25.8c-16.2,0-29.4,13.2-29.4,29.4v0c0,0.2,0,0.4,0,0.6l32.5-29.8
		C55.7,25.8,54.6,25.8,53.6,25.8z"/>
	<linearGradient id="XMLID_85_" gradientUnits="userSpaceOnUse" x1="65.4895" y1="26.1794" x2="65.4895" y2="85.8174">
		<stop  offset="0" style="stop-color:#2D2D2D"/>
		<stop  offset="1" style="stop-color:#262626"/>
	</linearGradient>
	<path id="XMLID_41_" fill="url(#XMLID_85_)" d="M82.8,52L48,84c1.8,0.3,3.6,0.5,5.5,0.5h0C69.8,84.5,83,71.4,83,55.1v0
		C83,54.1,82.9,53,82.8,52z"/>
	<polygon id="XMLID_64_" fill="#441717" points="81.9,47.5 81.9,47.5 81.9,47.5 	"/>
	<polygon id="XMLID_66_" fill="#441717" points="24.7,60.6 24.7,60.6 24.7,60.6 	"/>
	<linearGradient id="XMLID_86_" gradientUnits="userSpaceOnUse" x1="66.5091" y1="24.057" x2="45.7701" y2="71.0655">
		<stop  offset="0" style="stop-color:#FFB208"/>
		<stop  offset="1" style="stop-color:#FF0000"/>
	</linearGradient>
	<path id="XMLID_67_" fill="url(#XMLID_86_)" d="M24.7,60.6C24.7,60.6,24.7,60.6,24.7,60.6L50,60.5l-6.5,22.3c0,0,0.1,0,0.1,0
		l38.3-35.4c0,0,0,0,0,0H56.6l15.3-15.3c-3-2.4-6.6-4.3-10.4-5.3L24.7,60.6z"/>
</g>
<g id="XMLID_21_">
	<path id="XMLID_28_" fill="#2B2B2B" d="M121.1,66.7h-4.3V56.6H106v10.1h-4.3v-23h4.3v9.9h10.8v-9.9h4.3V66.7z"/>
	<path id="XMLID_43_" fill="#2B2B2B" d="M149.1,55.2c0,1.7-0.3,3.2-0.8,4.7c-0.6,1.4-1.4,2.7-2.4,3.7c-1,1.1-2.2,1.9-3.7,2.5
		c-1.4,0.6-3,0.9-4.8,0.9c-1.7,0-3.3-0.3-4.8-0.9c-1.4-0.6-2.7-1.4-3.7-2.5c-1-1-1.8-2.3-2.4-3.7c-0.6-1.4-0.8-3-0.8-4.7
		c0-1.7,0.3-3.2,0.8-4.7c0.6-1.4,1.4-2.7,2.4-3.7c1-1,2.3-1.9,3.7-2.5c1.4-0.6,3-0.9,4.8-0.9c1.7,0,3.3,0.3,4.8,0.9
		c1.4,0.6,2.7,1.4,3.7,2.5c1,1,1.8,2.3,2.4,3.7C148.8,51.9,149.1,53.5,149.1,55.2z M144.7,55.2c0-1.3-0.2-2.4-0.5-3.4
		c-0.3-1-0.8-1.9-1.4-2.6c-0.6-0.7-1.4-1.2-2.3-1.6c-0.9-0.4-1.9-0.6-3-0.6s-2.1,0.2-3,0.6c-0.9,0.4-1.7,0.9-2.3,1.6
		c-0.6,0.7-1.1,1.6-1.5,2.6c-0.3,1-0.5,2.1-0.5,3.4c0,1.3,0.2,2.4,0.5,3.4c0.3,1,0.8,1.9,1.5,2.5c0.6,0.7,1.4,1.2,2.3,1.6
		c0.9,0.4,1.9,0.6,3,0.6s2.1-0.2,3-0.6c0.9-0.4,1.7-0.9,2.3-1.6c0.6-0.7,1.1-1.5,1.4-2.5C144.6,57.5,144.7,56.4,144.7,55.2z"/>
	<path id="XMLID_46_" fill="#2B2B2B" d="M168.8,43.6v3.5h-6.9v19.5h-4.3V47.2h-7v-3.5H168.8z"/>
	<path id="XMLID_48_" fill="#2B2B2B" d="M176.6,57.1v9.5h-3.1V43.9h6.4c1.4,0,2.7,0.1,3.7,0.4c1.1,0.3,1.9,0.7,2.6,1.3
		c0.7,0.6,1.2,1.2,1.5,2c0.3,0.8,0.5,1.7,0.5,2.6c0,0.8-0.1,1.6-0.4,2.3c-0.3,0.7-0.6,1.3-1.1,1.9c-0.5,0.6-1.1,1-1.8,1.4
		c-0.7,0.4-1.5,0.7-2.4,0.9c0.4,0.2,0.7,0.5,1,1l6.7,9.1h-2.7c-0.6,0-1-0.2-1.2-0.7l-5.9-8.1c-0.2-0.3-0.4-0.4-0.6-0.5
		c-0.2-0.1-0.5-0.2-1-0.2H176.6z M176.6,54.9h3.2c0.9,0,1.7-0.1,2.4-0.3c0.7-0.2,1.3-0.5,1.7-0.9c0.5-0.4,0.8-0.9,1-1.4
		c0.2-0.6,0.3-1.2,0.3-1.8c0-1.4-0.4-2.4-1.3-3.1c-0.9-0.7-2.2-1-4-1h-3.4V54.9z"/>
	<path id="XMLID_51_" fill="#2B2B2B" d="M209.1,43.9v2.5h-10.9v7.6h8.9v2.4h-8.9v7.8h10.9v2.5h-14V43.9H209.1z"/>
	<path id="XMLID_53_" fill="#2B2B2B" d="M217.9,64.1h9.9v2.6h-13V43.9h3.1V64.1z"/>
	<path id="XMLID_55_" fill="#2B2B2B" d="M252.4,55.3c0,1.7-0.3,3.3-0.8,4.7c-0.5,1.4-1.3,2.7-2.3,3.7c-1,1-2.2,1.8-3.6,2.4
		c-1.4,0.6-2.9,0.9-4.6,0.9c-1.7,0-3.2-0.3-4.6-0.9c-1.4-0.6-2.6-1.4-3.5-2.4c-1-1-1.8-2.3-2.3-3.7c-0.5-1.4-0.8-3-0.8-4.7
		c0-1.7,0.3-3.3,0.8-4.7c0.5-1.4,1.3-2.7,2.3-3.7c1-1,2.2-1.8,3.5-2.4c1.4-0.6,2.9-0.9,4.6-0.9c1.7,0,3.2,0.3,4.6,0.9
		c1.4,0.6,2.6,1.4,3.6,2.4c1,1,1.7,2.3,2.3,3.7C252.1,52,252.4,53.6,252.4,55.3z M249.2,55.3c0-1.4-0.2-2.7-0.6-3.8
		c-0.4-1.1-0.9-2.1-1.6-2.8c-0.7-0.8-1.5-1.4-2.5-1.8c-1-0.4-2.1-0.6-3.3-0.6c-1.2,0-2.3,0.2-3.3,0.6c-1,0.4-1.8,1-2.6,1.8
		c-0.7,0.8-1.2,1.7-1.6,2.8c-0.4,1.1-0.6,2.4-0.6,3.8c0,1.4,0.2,2.7,0.6,3.8c0.4,1.1,0.9,2,1.6,2.8s1.6,1.4,2.6,1.8
		c1,0.4,2.1,0.6,3.3,0.6c1.2,0,2.3-0.2,3.3-0.6c1-0.4,1.8-1,2.5-1.8c0.7-0.8,1.2-1.7,1.6-2.8C249,57.9,249.2,56.7,249.2,55.3z"/>
	<path id="XMLID_58_" fill="#2B2B2B" d="M276,66.7h-2.4c-0.3,0-0.5-0.1-0.7-0.2c-0.2-0.1-0.3-0.3-0.4-0.5l-2.1-5.5h-10.2l-2.1,5.5
		c-0.1,0.2-0.2,0.4-0.4,0.5c-0.2,0.1-0.4,0.2-0.7,0.2h-2.4l9.1-22.8h3.1L276,66.7z M261.1,58.2h8.5l-3.6-9.3
		c-0.2-0.6-0.5-1.3-0.7-2.1c-0.1,0.4-0.2,0.8-0.3,1.2c-0.1,0.4-0.2,0.7-0.3,1L261.1,58.2z"/>
	<path id="XMLID_61_" fill="#2B2B2B" d="M300,55.3c0,1.7-0.3,3.3-0.8,4.7c-0.5,1.4-1.3,2.6-2.3,3.6c-1,1-2.2,1.8-3.5,2.3
		c-1.4,0.5-2.9,0.8-4.6,0.8h-8.5V43.9h8.5c1.7,0,3.2,0.3,4.6,0.8c1.4,0.5,2.6,1.3,3.5,2.3c1,1,1.8,2.2,2.3,3.6
		C299.7,52,300,53.6,300,55.3z M296.8,55.3c0-1.4-0.2-2.7-0.6-3.8c-0.4-1.1-0.9-2-1.6-2.8c-0.7-0.8-1.5-1.3-2.5-1.8
		c-1-0.4-2.1-0.6-3.3-0.6h-5.4v17.8h5.4c1.2,0,2.3-0.2,3.3-0.6c1-0.4,1.8-1,2.5-1.7c0.7-0.8,1.2-1.7,1.6-2.8
		C296.6,57.9,296.8,56.7,296.8,55.3z"/>
</g>
<circle id="XMLID_69_" fill="#FFFFFF" cx="53.6" cy="139.4" r="29.4"/>
<circle id="XMLID_68_" fill="#FFFFFF" cx="53.6" cy="139.4" r="29.4"/>
<path id="XMLID_65_" d="M39.9,165.4l4.9-16.8l-19.1,0C28.1,155.9,33.2,161.9,39.9,165.4z"/>
<path id="XMLID_38_" d="M74.8,119l-8.8,8.8h14.6C79.2,124.5,77.2,121.6,74.8,119z"/>
<path id="XMLID_37_" d="M53.6,110L53.6,110c-16.2,0-29.4,13.2-29.4,29.4v0c0,0.2,0,0.4,0,0.6l32.5-29.8C55.7,110,54.6,110,53.6,110z
	"/>
<path id="XMLID_36_" d="M82.8,136.2L48,168.2c1.8,0.3,3.6,0.5,5.5,0.5h0c16.2,0,29.4-13.2,29.4-29.4v0
	C83,138.3,82.9,137.2,82.8,136.2z"/>
<polygon id="XMLID_35_" fill="#441717" points="81.9,131.7 81.9,131.7 81.9,131.7 "/>
<polygon id="XMLID_34_" fill="#441717" points="24.7,144.8 24.7,144.8 24.7,144.8 "/>
<path id="XMLID_33_" d="M24.7,144.8C24.7,144.8,24.7,144.8,24.7,144.8l25.3-0.1L43.5,167c0,0,0.1,0,0.1,0l38.3-35.4c0,0,0,0,0,0
	H56.6l15.3-15.3c-3-2.4-6.6-4.3-10.4-5.3L24.7,144.8z"/>
<g id="XMLID_3_">
	<path id="XMLID_30_" d="M121.1,150.9h-4.3v-10.1H106v10.1h-4.3v-23h4.3v9.9h10.8v-9.9h4.3V150.9z"/>
	<path id="XMLID_26_" d="M149.1,139.4c0,1.7-0.3,3.2-0.8,4.7c-0.6,1.4-1.4,2.7-2.4,3.7c-1,1.1-2.2,1.9-3.7,2.5
		c-1.4,0.6-3,0.9-4.8,0.9c-1.7,0-3.3-0.3-4.8-0.9c-1.4-0.6-2.7-1.4-3.7-2.5c-1-1-1.8-2.3-2.4-3.7c-0.6-1.4-0.8-3-0.8-4.7
		c0-1.7,0.3-3.2,0.8-4.7c0.6-1.4,1.4-2.7,2.4-3.7c1-1,2.3-1.9,3.7-2.5c1.4-0.6,3-0.9,4.8-0.9c1.7,0,3.3,0.3,4.8,0.9
		c1.4,0.6,2.7,1.4,3.7,2.5c1,1,1.8,2.3,2.4,3.7C148.8,136.1,149.1,137.7,149.1,139.4z M144.7,139.4c0-1.3-0.2-2.4-0.5-3.4
		c-0.3-1-0.8-1.9-1.4-2.6c-0.6-0.7-1.4-1.2-2.3-1.6c-0.9-0.4-1.9-0.6-3-0.6s-2.1,0.2-3,0.6c-0.9,0.4-1.7,0.9-2.3,1.6
		c-0.6,0.7-1.1,1.6-1.5,2.6c-0.3,1-0.5,2.1-0.5,3.4s0.2,2.4,0.5,3.4c0.3,1,0.8,1.9,1.5,2.5c0.6,0.7,1.4,1.2,2.3,1.6
		c0.9,0.4,1.9,0.6,3,0.6s2.1-0.2,3-0.6c0.9-0.4,1.7-0.9,2.3-1.6c0.6-0.7,1.1-1.5,1.4-2.5C144.6,141.8,144.7,140.6,144.7,139.4z"/>
	<path id="XMLID_24_" d="M168.8,127.9v3.5h-6.9v19.5h-4.3v-19.5h-7v-3.5H168.8z"/>
	<path id="XMLID_20_" d="M176.6,141.4v9.5h-3.1v-22.8h6.4c1.4,0,2.7,0.1,3.7,0.4c1.1,0.3,1.9,0.7,2.6,1.3s1.2,1.2,1.5,2
		c0.3,0.8,0.5,1.7,0.5,2.6c0,0.8-0.1,1.6-0.4,2.3c-0.3,0.7-0.6,1.3-1.1,1.9c-0.5,0.6-1.1,1-1.8,1.4c-0.7,0.4-1.5,0.7-2.4,0.9
		c0.4,0.2,0.7,0.5,1,1l6.7,9.1h-2.7c-0.6,0-1-0.2-1.2-0.7l-5.9-8.1c-0.2-0.3-0.4-0.4-0.6-0.5c-0.2-0.1-0.5-0.2-1-0.2H176.6z
		 M176.6,139.1h3.2c0.9,0,1.7-0.1,2.4-0.3c0.7-0.2,1.3-0.5,1.7-0.9c0.5-0.4,0.8-0.9,1-1.4c0.2-0.6,0.3-1.2,0.3-1.8
		c0-1.4-0.4-2.4-1.3-3.1c-0.9-0.7-2.2-1-4-1h-3.4V139.1z"/>
	<path id="XMLID_17_" d="M209.1,128.1v2.5h-10.9v7.6h8.9v2.4h-8.9v7.8h10.9v2.5h-14v-22.8H209.1z"/>
	<path id="XMLID_15_" d="M217.9,148.3h9.9v2.6h-13v-22.8h3.1V148.3z"/>
	<path id="XMLID_12_" d="M252.4,139.5c0,1.7-0.3,3.3-0.8,4.7c-0.5,1.4-1.3,2.7-2.3,3.7c-1,1-2.2,1.8-3.6,2.4
		c-1.4,0.6-2.9,0.9-4.6,0.9c-1.7,0-3.2-0.3-4.6-0.9c-1.4-0.6-2.6-1.4-3.5-2.4c-1-1-1.8-2.3-2.3-3.7s-0.8-3-0.8-4.7
		c0-1.7,0.3-3.3,0.8-4.7s1.3-2.7,2.3-3.7c1-1,2.2-1.8,3.5-2.4c1.4-0.6,2.9-0.9,4.6-0.9c1.7,0,3.2,0.3,4.6,0.9
		c1.4,0.6,2.6,1.4,3.6,2.4c1,1,1.7,2.3,2.3,3.7C252.1,136.2,252.4,137.8,252.4,139.5z M249.2,139.5c0-1.4-0.2-2.7-0.6-3.8
		c-0.4-1.1-0.9-2.1-1.6-2.8c-0.7-0.8-1.5-1.4-2.5-1.8c-1-0.4-2.1-0.6-3.3-0.6c-1.2,0-2.3,0.2-3.3,0.6c-1,0.4-1.8,1-2.6,1.8
		c-0.7,0.8-1.2,1.7-1.6,2.8c-0.4,1.1-0.6,2.4-0.6,3.8c0,1.4,0.2,2.7,0.6,3.8c0.4,1.1,0.9,2,1.6,2.8c0.7,0.8,1.6,1.4,2.6,1.8
		c1,0.4,2.1,0.6,3.3,0.6c1.2,0,2.3-0.2,3.3-0.6c1-0.4,1.8-1,2.5-1.8c0.7-0.8,1.2-1.7,1.6-2.8C249,142.1,249.2,140.9,249.2,139.5z"/>
	<path id="XMLID_7_" d="M276,150.9h-2.4c-0.3,0-0.5-0.1-0.7-0.2c-0.2-0.1-0.3-0.3-0.4-0.5l-2.1-5.5h-10.2l-2.1,5.5
		c-0.1,0.2-0.2,0.4-0.4,0.5c-0.2,0.1-0.4,0.2-0.7,0.2h-2.4l9.1-22.8h3.1L276,150.9z M261.1,142.4h8.5l-3.6-9.3
		c-0.2-0.6-0.5-1.3-0.7-2.1c-0.1,0.4-0.2,0.8-0.3,1.2c-0.1,0.4-0.2,0.7-0.3,1L261.1,142.4z"/>
	<path id="XMLID_4_" d="M300,139.5c0,1.7-0.3,3.3-0.8,4.7c-0.5,1.4-1.3,2.6-2.3,3.6c-1,1-2.2,1.8-3.5,2.3c-1.4,0.5-2.9,0.8-4.6,0.8
		h-8.5v-22.8h8.5c1.7,0,3.2,0.3,4.6,0.8c1.4,0.5,2.6,1.3,3.5,2.3c1,1,1.8,2.2,2.3,3.6C299.7,136.2,300,137.8,300,139.5z
		 M296.8,139.5c0-1.4-0.2-2.7-0.6-3.8c-0.4-1.1-0.9-2-1.6-2.8c-0.7-0.8-1.5-1.3-2.5-1.8c-1-0.4-2.1-0.6-3.3-0.6h-5.4v17.8h5.4
		c1.2,0,2.3-0.2,3.3-0.6c1-0.4,1.8-1,2.5-1.7c0.7-0.8,1.2-1.7,1.6-2.8C296.6,142.1,296.8,140.9,296.8,139.5z"/>
</g>
</svg>
