<svg xmlns="http://www.w3.org/2000/svg" xmlns:xlink="http://www.w3.org/1999/xlink" version="1.1" enable-background="new 0 0 326.9 189.7" xml:space="preserve" width="80.9295883178711" height="80.54930114746094" style=""><rect id="backgroundrect" width="100%" height="100%" x="0" y="0" fill="none" stroke="none"/>













<g class="currentLayer" style=""><title>Layer 1</title><circle id="XMLID_1_" fill="#FFFFFF" cx="40.49997481502431" cy="40.34414882628267" r="40.212181018662704" class=""/><g id="XMLID_8_" class="">
	<circle id="XMLID_9_" fill="#FFFFFF" cx="40.499977317230424" cy="40.344148332650775" r="26.895206332675343"/>
	<linearGradient id="XMLID_82_" x1="0.4989003837108612" y1="-2.2750349044799805" x2="0.4989003837108612" y2="1.2748452425003052" transform="translate(-0.10152284055948257,0.5076141953468323) translate(-1.9289339780807495,-1.9289339780807495) translate(-128.87322998046875,-60.563377380371094) translate(107.04224395751953,36.61971664428711) translate(59.240081787109375,58.627403259277344) scale(1.0034531354904175) translate(-59.240081787109375,-58.627403259277344) translate(0.13504506647586823,0.13151530921459198) scale(1.314876675605774,0.8761141300201416) translate(-0.13504506647586823,-0.13151530921459198) translate(0.10270694643259048,0.1501120775938034) scale(1.040566325187683,1.555795431137085) translate(-0.10270694643259048,-0.1501120775938034) ">
		<stop offset="0" style="stop-color:#2D2D2D"/>
		<stop offset="1" style="stop-color:#262626"/>
	</linearGradient>
	<path id="XMLID_19_" fill="url(#XMLID_82_)" d="M21.690687342458595,76.0427222272162 l6.727411032233328,-22.978387690071617 l-26.223173615440114,0 C5.489983224019139,63.04899109294951 12.491982461649737,71.25555812511794 21.690687342458595,76.0427222272162 z"/>
	<linearGradient id="XMLID_83_" x1="0.49963706731796265" y1="-0.979613721370697" x2="0.49963706731796265" y2="5.7974324226379395" transform="translate(-0.10152284055948257,0.5076141953468323) translate(-1.9289339780807495,-1.9289339780807495) translate(-128.87322998046875,-60.563377380371094) translate(107.04224395751953,36.61971664428711) translate(59.240081787109375,58.627403259277344) scale(1.0034531354904175) translate(-59.240081787109375,-58.627403259277344) translate(0.13504506647586823,0.13151530921459198) scale(1.314876675605774,0.8761141300201416) translate(-0.13504506647586823,-0.13151530921459198) translate(0.10270694643259048,0.1501120775938034) scale(1.040566325187683,1.555795431137085) translate(-0.10270694643259048,-0.1501120775938034) ">
		<stop offset="0" style="stop-color:#2D2D2D"/>
		<stop offset="1" style="stop-color:#262626"/>
	</linearGradient>
	<path id="XMLID_39_" fill="url(#XMLID_83_)" d="M69.60632918428375,12.57860384511362 L57.52444814680345,24.614902158960653 h20.044938994001345 C75.64726970302384,20.10129029126802 72.90138764905105,15.9980067751838 69.60632918428375,12.57860384511362 z"/>
	<linearGradient id="XMLID_84_" x1="0.49941539764404297" y1="0.01264667697250843" x2="0.49941539764404297" y2="2.000580310821533" transform="translate(-0.10152284055948257,0.5076141953468323) translate(-1.9289339780807495,-1.9289339780807495) translate(-128.87322998046875,-60.563377380371094) translate(107.04224395751953,36.61971664428711) translate(59.240081787109375,58.627403259277344) scale(1.0034531354904175) translate(-59.240081787109375,-58.627403259277344) translate(0.13504506647586823,0.13151530921459198) scale(1.314876675605774,0.8761141300201416) translate(-0.13504506647586823,-0.13151530921459198) translate(0.10270694643259048,0.1501120775938034) scale(1.040566325187683,1.555795431137085) translate(-0.10270694643259048,-0.1501120775938034) ">
		<stop offset="0" style="stop-color:#2D2D2D"/>
		<stop offset="1" style="stop-color:#262626"/>
	</linearGradient>
	<path id="XMLID_40_" fill="url(#XMLID_84_)" d="M40.499979412172166,0.2687532968609688 L40.499979412172166,0.2687532968609688 c-22.241644637179576,0 -40.36446619339997,18.054447470770562 -40.36446619339997,40.212178457625335 v0 c0,0.27355223440561444 0,0.5471044688112291 0,0.8206567032168443 l44.62058337705779,-40.75928292643656 C43.383155568843584,0.2687532968609688 41.87292043915856,0.2687532968609688 40.499979412172166,0.2687532968609688 z"/>
	<linearGradient id="XMLID_85_" x1="0.49970006942749023" y1="-0.79448002576828" x2="0.49970006942749023" y2="1.0405353307724" transform="translate(-0.10152284055948257,0.5076141953468323) translate(-1.9289339780807495,-1.9289339780807495) translate(-128.87322998046875,-60.563377380371094) translate(107.04224395751953,36.61971664428711) translate(59.240081787109375,58.627403259277344) scale(1.0034531354904175) translate(-59.240081787109375,-58.627403259277344) translate(0.13504506647586823,0.13151530921459198) scale(1.314876675605774,0.8761141300201416) translate(-0.13504506647586823,-0.13151530921459198) translate(0.10270694643259048,0.1501120775938034) scale(1.040566325187683,1.555795431137085) translate(-0.10270694643259048,-0.1501120775938034) ">
		<stop offset="0" style="stop-color:#2D2D2D"/>
		<stop offset="1" style="stop-color:#262626"/>
	</linearGradient>
	<path id="XMLID_41_" fill="url(#XMLID_85_)" d="M80.58985740017489,36.104096003996474 L32.811509661048376,79.8724535088948 c2.4712938485755083,0.410328351608422 4.9425876971510165,0.6838805860140358 7.551175648425164,0.6838805860140358 h0 C62.74162404935177,80.55633409490883 80.86444560557214,62.638662741341086 80.86444560557214,40.344155637283485 v0 C80.86444560557214,38.97639446525542 80.72715150287351,37.47185717602454 80.58985740017489,36.104096003996474 z"/>
	<polygon id="XMLID_64_" fill="#441717" points="79.35421378986211,29.949176081777296 79.35421378986211,29.949176081777296 79.35421378986211,29.949176081777296 "/>
	<polygon id="XMLID_66_" fill="#441717" points="0.8219899573674923,47.86684505881976 0.8219899573674923,47.86684505881976 0.8219899573674923,47.86684505881976 "/>
	<linearGradient id="XMLID_86_" x1="0.7309284210205078" y1="-0.04898221045732498" x2="0.36835840344429016" y2="0.7904552817344666" transform="translate(-0.10152284055948257,0.5076141953468323) translate(-1.9289339780807495,-1.9289339780807495) translate(-128.87322998046875,-60.563377380371094) translate(107.04224395751953,36.61971664428711) translate(59.240081787109375,58.627403259277344) scale(1.0034531354904175) translate(-59.240081787109375,-58.627403259277344) translate(0.13504506647586823,0.13151530921459198) scale(1.314876675605774,0.8761141300201416) translate(-0.13504506647586823,-0.13151530921459198) translate(0.10270694643259048,0.1501120775938034) scale(1.040566325187683,1.555795431137085) translate(-0.10270694643259048,-0.1501120775938034) ">
		<stop offset="0" style="stop-color:#FFB208"/>
		<stop offset="1" style="stop-color:#FF0000"/>
	</linearGradient>
	<path id="XMLID_67_" fill="url(#XMLID_86_)" d="M0.8219837322653917,47.86684208343789 C0.8219837322653917,47.86684208343789 0.8219837322653917,47.86684208343789 0.8219837322653917,47.86684208343789 L35.55739171502116,47.73006596623509 l-8.924116675411558,30.501074136226016 c0,0 0.1372941026986393,0 0.1372941026986393,0 l52.58364133357887,-48.418745489793764 c0,0 0,0 0,0 H44.61880249313135 l21.00599771289182,-20.926745932029508 c-4.118823080959181,-3.282626812867374 -9.061410778110197,-5.881373039720712 -14.278586680658492,-7.2491342117487845 L0.8219837322653917,47.86684208343789 z"/>
</g></g></svg>